grf
version=1
nRows=48
nColumns=19
inDegrees=yes
endheader
time	ground_force_1_vx	ground_force_1_vy	ground_force_1_vz	ground_force_1_px	ground_force_1_py	ground_force_1_pz	ground_moment_1_mx	ground_moment_1_my	ground_moment_1_mz	ground_force_2_vx	ground_force_2_vy	ground_force_2_vz	ground_force_2_px	ground_force_2_py	ground_force_2_pz	ground_moment_2_mx	ground_moment_2_my	ground_moment_2_mz
7.137000	11.562040	361.732183	-26.077990	0.129984	0.000000	-1.075989	0.000000	4.826871	-0.000000	0.686452	432.930474	39.008321	0.152327	0.000000	-1.399675	-0.000000	-1.495360	-0.000000
7.138000	11.378329	362.499125	-26.140932	0.130014	0.000000	-1.076066	0.000000	4.822492	-0.000000	0.449883	434.089095	39.141038	0.152368	0.000000	-1.399636	-0.000000	-1.490289	-0.000000
7.139000	11.188228	363.276886	-26.206729	0.130051	0.000000	-1.076134	0.000000	4.818817	-0.000000	0.212652	435.230842	39.283782	0.152419	0.000000	-1.399605	-0.000000	-1.484955	-0.000000
7.140000	10.991632	364.065331	-26.275197	0.130095	0.000000	-1.076187	0.000000	4.815867	-0.000000	-0.025166	436.354953	39.436206	0.152480	0.000000	-1.399583	-0.000000	-1.479364	-0.000000
7.141000	10.788465	364.864182	-26.346154	0.130147	0.000000	-1.076220	0.000000	4.813648	-0.000000	-0.263465	437.460762	39.597893	0.152553	0.000000	-1.399570	-0.000000	-1.473519	-0.000000
7.142000	10.578682	365.673018	-26.419418	0.130208	0.000000	-1.076228	0.000000	4.812159	-0.000000	-0.502113	438.547682	39.768363	0.152639	0.000000	-1.399568	-0.000000	-1.467418	-0.000000
7.143000	10.362266	366.491267	-26.494818	0.130277	0.000000	-1.076208	0.000000	4.811385	-0.000000	-0.740954	439.615200	39.947081	0.152736	0.000000	-1.399576	-0.000000	-1.461058	-0.000000
7.144000	10.139230	367.318205	-26.572191	0.130355	0.000000	-1.076158	0.000000	4.811301	-0.000000	-0.979809	440.662867	40.133464	0.152846	0.000000	-1.399595	-0.000000	-1.454433	-0.000000
7.145000	9.909614	368.152960	-26.651391	0.130442	0.000000	-1.076077	0.000000	4.811875	-0.000000	-1.218476	441.690288	40.326891	0.152968	0.000000	-1.399623	-0.000000	-1.447532	-0.000000
7.146000	9.673487	368.994521	-26.732285	0.130537	0.000000	-1.075967	0.000000	4.813061	-0.000000	-1.456730	442.697121	40.526714	0.153101	0.000000	-1.399661	-0.000000	-1.440344	-0.000000
7.147000	9.430945	369.841747	-26.814759	0.130641	0.000000	-1.075829	0.000000	4.814810	-0.000000	-1.694330	443.683074	40.732266	0.153243	0.000000	-1.399708	0.000000	-1.432854	-0.000000
7.148000	9.182115	370.693382	-26.898717	0.130754	0.000000	-1.075668	0.000000	4.817065	-0.000000	-1.931015	444.647907	40.942871	0.153393	0.000000	-1.399761	0.000000	-1.425047	-0.000000
7.149000	8.927153	371.548072	-26.984078	0.130875	0.000000	-1.075489	0.000000	4.819761	-0.000000	-2.166503	445.591436	41.157853	0.153548	0.000000	-1.399821	0.000000	-1.416908	-0.000000
7.150000	8.666245	372.404383	-27.070780	0.131003	0.000000	-1.075296	-0.000000	4.822832	-0.000000	-2.400501	446.513535	41.376547	0.153706	0.000000	-1.399887	0.000000	-1.408419	-0.000000
7.151000	8.399606	373.260821	-27.158775	0.131140	0.000000	-1.075098	-0.000000	4.826210	-0.000000	-2.632696	447.414140	41.598307	0.153865	0.000000	-1.399958	0.000000	-1.399566	-0.000000
7.152000	8.127487	374.115852	-27.248026	0.131283	0.000000	-1.074899	-0.000000	4.829823	-0.000000	-2.862764	448.293263	41.822512	0.154023	0.000000	-1.400034	0.000000	-1.390337	-0.000000
7.153000	7.850171	374.967924	-27.338503	0.131433	0.000000	-1.074708	-0.000000	4.833602	-0.000000	-3.090367	449.150985	42.048572	0.154178	0.000000	-1.400115	0.000000	-1.380718	-0.000000
7.154000	7.567977	375.815482	-27.430180	0.131589	0.000000	-1.074528	-0.000000	4.837478	-0.000000	-3.315161	449.987470	42.275937	0.154328	0.000000	-1.400202	0.000000	-1.370702	-0.000000
7.155000	7.281262	376.656993	-27.523031	0.131751	0.000000	-1.074366	-0.000000	4.841385	-0.000000	-3.536792	450.802964	42.504095	0.154472	0.000000	-1.400296	0.000000	-1.360283	-0.000000
7.156000	6.990420	377.490955	-27.617025	0.131919	0.000000	-1.074224	-0.000000	4.845262	-0.000000	-3.754908	451.597796	42.732583	0.154609	0.000000	-1.400397	0.000000	-1.349461	-0.000000
7.157000	6.695887	378.315920	-27.712121	0.132091	0.000000	-1.074106	-0.000000	4.849051	-0.000000	-3.969154	452.372379	42.960981	0.154739	0.000000	-1.400506	0.000000	-1.338235	-0.000000
7.158000	6.398139	379.130497	-27.808264	0.132269	0.000000	-1.074012	-0.000000	4.852702	-0.000000	-4.179184	453.127206	43.188914	0.154861	0.000000	-1.400621	0.000000	-1.326613	-0.000000
7.159000	6.097696	379.933371	-27.905384	0.132451	0.000000	-1.073943	0.000000	4.856169	-0.000000	-4.384661	453.862850	43.416056	0.154976	0.000000	-1.400744	0.000000	-1.314603	-0.000000
7.160000	5.795117	380.723307	-28.003391	0.132637	0.000000	-1.073897	0.000000	4.859414	-0.000000	-4.585260	454.579952	43.642118	0.155084	0.000000	-1.400872	0.000000	-1.302220	-0.000000
7.161000	5.491002	381.499160	-28.102170	0.132827	0.000000	-1.073872	0.000000	4.862407	-0.000000	-4.780679	455.279218	43.866854	0.155186	0.000000	-1.401005	0.000000	-1.289480	-0.000000
7.162000	5.185990	382.259877	-28.201588	0.133020	0.000000	-1.073866	0.000000	4.865125	-0.000000	-4.970635	455.961406	44.090051	0.155284	0.000000	-1.401140	0.000000	-1.276404	-0.000000
7.163000	4.880752	383.004507	-28.301485	0.133216	0.000000	-1.073878	0.000000	4.867553	-0.000000	-5.154869	456.627316	44.311527	0.155377	0.000000	-1.401277	0.000000	-1.263016	-0.000000
7.164000	4.575988	383.732202	-28.401682	0.133414	0.000000	-1.073903	0.000000	4.869682	-0.000000	-5.333153	457.277767	44.531125	0.155468	0.000000	-1.401414	0.000000	-1.249344	-0.000000
7.165000	4.272421	384.442219	-28.501978	0.133613	0.000000	-1.073940	0.000000	4.871511	-0.000000	-5.505285	457.913591	44.748708	0.155557	0.000000	-1.401548	0.000000	-1.235417	-0.000000
7.166000	3.970788	385.133925	-28.602154	0.133813	0.000000	-1.073986	0.000000	4.873044	-0.000000	-5.671092	458.535603	44.964155	0.155647	0.000000	-1.401678	0.000000	-1.221270	-0.000000
7.167000	3.671830	385.806798	-28.701976	0.134012	0.000000	-1.074039	0.000000	4.874292	-0.000000	-5.830430	459.144582	45.177353	0.155737	0.000000	-1.401802	0.000000	-1.206938	-0.000000
7.168000	3.376285	386.460422	-28.801200	0.134212	0.000000	-1.074096	0.000000	4.875268	-0.000000	-5.983182	459.741252	45.388197	0.155830	0.000000	-1.401921	0.000000	-1.192462	-0.000000
7.169000	3.084873	387.094490	-28.899573	0.134411	0.000000	-1.074156	0.000000	4.875991	-0.000000	-6.129257	460.326251	45.596586	0.155927	0.000000	-1.402033	0.000000	-1.177883	-0.000000
7.170000	2.798287	387.708799	-28.996841	0.134610	0.000000	-1.074215	0.000000	4.876480	-0.000000	-6.268584	460.900113	45.802414	0.156030	0.000000	-1.402139	0.000000	-1.163248	-0.000000
7.171000	2.517180	388.303242	-29.092749	0.134809	0.000000	-1.074271	0.000000	4.876756	-0.000000	-6.401113	461.463243	46.005578	0.156137	0.000000	-1.402238	0.000000	-1.148604	-0.000000
7.172000	2.242157	388.877803	-29.187051	0.135009	0.000000	-1.074322	0.000000	4.876841	-0.000000	-6.526809	462.015899	46.205968	0.156251	0.000000	-1.402333	0.000000	-1.134002	-0.000000
7.173000	1.973760	389.432548	-29.279509	0.135209	0.000000	-1.074365	0.000000	4.876754	-0.000000	-6.645650	462.558171	46.403470	0.156371	0.000000	-1.402425	0.000000	-1.119495	-0.000000
7.174000	1.712463	389.967614	-29.369899	0.135411	0.000000	-1.074399	0.000000	4.876514	-0.000000	-6.757626	463.089980	46.597965	0.156497	0.000000	-1.402513	0.000000	-1.105139	-0.000000
7.175000	1.458662	390.483197	-29.458015	0.135614	0.000000	-1.074421	0.000000	4.876139	-0.000000	-6.862735	463.611060	46.789327	0.156627	0.000000	-1.402600	0.000000	-1.090990	-0.000000
7.176000	1.212672	390.979545	-29.543673	0.135819	0.000000	-1.074429	0.000000	4.875641	-0.000000	-6.960985	464.120973	46.977426	0.156762	0.000000	-1.402687	0.000000	-1.077104	-0.000000
7.177000	0.974719	391.456945	-29.626714	0.136026	0.000000	-1.074422	0.000000	4.875035	-0.000000	-7.052391	464.619106	47.162127	0.156899	0.000000	-1.402774	0.000000	-1.063537	-0.000000
7.178000	0.744943	391.915711	-29.707002	0.136234	0.000000	-1.074399	0.000000	4.874328	-0.000000	-7.136978	465.104696	47.343287	0.157037	0.000000	-1.402862	0.000000	-1.050344	-0.000000
7.179000	0.523397	392.356178	-29.784436	0.136441	0.000000	-1.074361	0.000000	4.873530	-0.000000	-7.214784	465.576847	47.520758	0.157175	0.000000	-1.402950	0.000000	-1.037576	-0.000000
7.180000	0.310050	392.778691	-29.858941	0.136648	0.000000	-1.074306	0.000000	4.872646	-0.000000	-7.285860	466.034563	47.694384	0.157312	0.000000	-1.403039	0.000000	-1.025278	-0.000000
7.181000	0.104791	393.183600	-29.930479	0.136853	0.000000	-1.074238	0.000000	4.871682	-0.000000	-7.350275	466.476783	47.864004	0.157444	0.000000	-1.403129	0.000000	-1.013494	-0.000000
7.182000	-0.092563	393.571252	-29.999044	0.137056	0.000000	-1.074158	0.000000	4.870643	-0.000000	-7.408121	466.902415	48.029448	0.157573	0.000000	-1.403219	-0.000000	-1.002255	-0.000000
7.183000	-0.282257	393.941995	-30.064665	0.137255	0.000000	-1.074069	0.000000	4.869534	-0.000000	-7.459514	467.310382	48.190537	0.157695	0.000000	-1.403308	-0.000000	-0.991589	-0.000000
7.184000	-0.464592	394.296168	-30.127407	0.137450	0.000000	-1.073974	0.000000	4.868363	-0.000000	-7.504600	467.699661	48.347085	0.157812	0.000000	-1.403396	-0.000000	-0.981510	-0.000000
